************************************************
Cidade de Deus 2002 1080p x264 - alrmothe
************************************************

Title : Hansel and Gretel Witch Hunters
YEAR: 2002
GENRE :  Crime | Drama      
imdb URL http://www.imdb.com/title/tt0317248/
Overall bit rate: 8791 kbps
Format version: Version 4 / Version 2
File size:  7.95 GiB
Duration:  2h 9mn
Sub:Arabic,English,Russian

sample:Yes

**************************************************

Video
Format: Matroska
Format : AVC 
Format/Info : Advanced Video Codec 
Format profile : High@L4.1 
Format settings, CABAC : Yes 
Format settings, ReFrames : 4 frames  
Codec ID : V_MPEG4/ISO/AVC  
Bit rate : 8150 kbps 
Width : 1920 pixels 
Height : 1036 pixels 
Display aspect ratio : 1:85:1 
Frame rate : 23.976 fps 
Color space : YUV 
Chroma subsampling : 4:2:0 
Bit depth : 8 bits 
Scan type : Progressive 
Bits/(Pixel*Frame) : 0.171 
Stream size: 7.21 GiB 


Audio 
Format: Ac3
Bit rate :640 Kbps
Channel(s) : 6 channels
Channel positions:Front: L C R, Side: L R, LFE
Sampling rate: 48.0 KHz
Bit depth: 16 bits
Compression mode: Lossy
Stream size: 448 GiB
Language : Portuguese

**************************************************

Screenshots 
http://img849.imageshack.us/img849/1706/vlcsnap2013052218h21m13.png 
http://img692.imageshack.us/img692/1336/vlcsnap2013052218h22m53.png 
http://img842.imageshack.us/img842/8969/vlcsnap2013052218h24m19.png 
http://img716.imageshack.us/img716/9700/vlcsnap2013052218h24m35.png 
http://img203.imageshack.us/img203/3210/vlcsnap2013052218h26m03.png 
http://img809.imageshack.us/img809/81/vlcsnap2013052218h27m41.png 
http://img28.imageshack.us/img28/9526/vlcsnap2013052218h28m38.png 
http://img801.imageshack.us/img801/7717/vlcsnap2013052218h35m52.png 
http://img585.imageshack.us/img585/29/vlcsnap2013052218h38m28.png 
http://img209.imageshack.us/img209/2615/vlcsnap2013052218h41m08.png
